HIERARCHY
ROOT Hips
{
	OFFSET -10.056300 472.549988 7.733724
	CHANNELS 6 Xposition Yposition Zposition Zrotation Xrotation Yrotation
	JOINT Spine
	{
		OFFSET 0.000000 0.000000 0.000000
		CHANNELS 6 Xposition Yposition Zposition Zrotation Xrotation Yrotation
		JOINT Spine1
		{
			OFFSET 19.000000 0.000000 0.000000
			CHANNELS 3 Zrotation Xrotation Yrotation
			JOINT Neck
			{
				OFFSET 22.500000 0.000000 0.600001
				CHANNELS 6 Xposition Yposition Zposition Zrotation Xrotation Yrotation
				JOINT Head
				{
					OFFSET 14.000000 0.000000 0.030878
					CHANNELS 6 Xposition Yposition Zposition Zrotation Xrotation Yrotation
					End Site
					{
						OFFSET 17.000000 0.000000 0.000000
					}
				}
			}
			JOINT LeftShoulder
			{
				OFFSET 19.799999 -4.299988 3.700000
				CHANNELS 6 Xposition Yposition Zposition Zrotation Xrotation Yrotation
				JOINT LeftArm
				{
					OFFSET 8.000000 0.000000 0.000000
					CHANNELS 6 Xposition Yposition Zposition Zrotation Xrotation Yrotation
					JOINT LeftForeArm
					{
						OFFSET 15.200001 0.000000 0.000000
						CHANNELS 6 Xposition Yposition Zposition Zrotation Xrotation Yrotation
						JOINT LeftHand
						{
							OFFSET 17.799999 0.000000 0.000000
							CHANNELS 6 Xposition Yposition Zposition Zrotation Xrotation Yrotation
							End Site
							{
								OFFSET 7.199997 0.000000 0.000000
							}
						}
					}
				}
			}
			JOINT RightShoulder
			{
				OFFSET 19.799999 4.299988 3.699999
				CHANNELS 6 Xposition Yposition Zposition Zrotation Xrotation Yrotation
				JOINT RightArm
				{
					OFFSET 8.000000 -0.151642 0.000000
					CHANNELS 6 Xposition Yposition Zposition Zrotation Xrotation Yrotation
					JOINT RightForeArm
					{
						OFFSET 15.200001 0.000000 0.000000
						CHANNELS 6 Xposition Yposition Zposition Zrotation Xrotation Yrotation
						JOINT RightHand
						{
							OFFSET 17.799999 0.000000 0.000000
							CHANNELS 6 Xposition Yposition Zposition Zrotation Xrotation Yrotation
							End Site
							{
								OFFSET 7.199997 0.000000 0.000000
							}
						}
					}
				}
			}
		}
	}
	JOINT LeftUpLeg
	{
		OFFSET 5.984250 -4.788788 -7.665999
		CHANNELS 6 Xposition Yposition Zposition Zrotation Xrotation Yrotation
		JOINT LeftLeg
		{
			OFFSET 16.000000 0.000000 0.000000
			CHANNELS 6 Xposition Yposition Zposition Zrotation Xrotation Yrotation
			JOINT LeftFoot
			{
				OFFSET 18.000000 0.000000 0.000000
				CHANNELS 6 Xposition Yposition Zposition Zrotation Xrotation Yrotation
				End Site
				{
					OFFSET 0.000000 0.000000 -10.800000
				}
			}
		}
	}
	JOINT RightUpLeg
	{
		OFFSET 5.984250 4.788788 -7.665980
		CHANNELS 6 Xposition Yposition Zposition Zrotation Xrotation Yrotation
		JOINT RightLeg
		{
			OFFSET 16.000000 0.000000 0.000000
			CHANNELS 6 Xposition Yposition Zposition Zrotation Xrotation Yrotation
			JOINT RightFoot
			{
				OFFSET 18.000000 0.000000 0.000000
				CHANNELS 6 Xposition Yposition Zposition Zrotation Xrotation Yrotation
				End Site
				{
					OFFSET 0.000000 0.000000 -10.800000
				}
			}
		}
	}
	JOINT Tail
	{
		OFFSET 6.836960 0.000000 -0.722574
		CHANNELS 6 Xposition Yposition Zposition Zrotation Xrotation Yrotation
		JOINT Tail1
		{
			OFFSET 12.000000 0.000000 0.000000
			CHANNELS 6 Xposition Yposition Zposition Zrotation Xrotation Yrotation
			End Site
			{
				OFFSET 11.999999 0.000000 0.000000
			}
		}
	}
}
MOTION
Frames: 9
Frame Time: 0.041667
-54.099304 449.488983 44.890354 68.109834 1.873430 3.815063 -0.000041 0.000046 0.000013 4.742472 0.437014 173.956900 15.636518 -3.700954 -2.942389 22.499960 0.000025 0.599998 -1.274451 -0.896136 12.640256 13.999991 0.000017 0.030917 -44.992324 105.981805 62.520116 19.800011 -4.300025 3.699967 16.185718 -121.194631 56.629860 8.000039 -0.000053 0.000013 -49.564791 146.812621 -43.820656 15.200010 0.000065 -0.000007 -2.502068 5.719045 67.239811 17.800003 0.000019 -0.000017 -14.225928 -0.263528 9.935078 19.799969 4.299991 3.700007 -14.371500 -41.964290 -74.973887 8.000025 -0.151653 -0.000034 -65.340383 0.000174 -65.440370 15.199975 0.000054 0.000012 14.159576 -9.689808 52.807987 17.799988 0.000020 -0.000013 1.470535 1.261079 11.493595 5.984197 -4.788755 -7.665995 12.366243 -8.587237 123.471392 16.000004 0.000046 0.000001 19.341644 -4.030736 -83.808607 17.999956 0.000057 0.000037 -8.748628 0.717189 -33.196785 5.984220 4.788831 -7.665967 -1.318372 -2.293479 131.142378 15.999976 -0.000032 -0.000021 -6.663124 5.535543 -100.510789 18.000027 0.000054 0.000032 -1.314916 0.446276 -33.749081 6.836931 0.000075 -0.722540 -10.562561 23.796179 40.758324 11.999999 0.000022 -0.000033 0.610572 -33.802886 -9.027596 
-54.884205 447.858002 45.172451 69.546257 2.043082 4.799246 0.000069 0.000051 0.000007 3.066113 0.281753 172.567748 15.148306 -3.543100 -2.935342 22.499987 0.000021 0.600003 -1.125172 -1.186916 13.112117 14.000005 0.000008 0.030944 -45.870693 106.131536 63.625309 19.799984 -4.300098 3.699980 16.494874 -121.957030 56.947771 8.000010 0.000022 -0.000018 -51.865670 148.108021 -44.717880 15.199996 0.000045 0.000025 -6.552144 5.392293 67.194493 17.799986 0.000014 -0.000002 -15.084818 -0.653425 11.930922 19.799976 4.299966 3.699981 -14.752022 -42.691927 -73.943915 8.000010 -0.151632 0.000034 -66.889771 0.006997 -65.542878 15.199984 0.000037 -0.000041 13.517513 -9.783678 50.875234 17.799995 -0.000008 0.000033 0.315399 1.285917 9.664832 5.984272 -4.788771 -7.666003 11.289924 -9.562443 119.850996 15.999962 0.000051 -0.000040 19.439487 -3.341035 -83.625783 17.999962 0.000056 0.000018 -8.856579 0.827109 -33.800123 5.984329 4.788816 -7.665973 -3.765186 -2.298096 133.777711 16.000031 0.000023 0.000012 -6.054087 5.760765 -98.425382 18.000006 0.000027 0.000027 -1.447737 0.430924 -33.826491 6.837042 0.000060 -0.722528 -9.830430 23.615927 37.933563 11.999968 0.000047 -0.000049 0.813034 -32.946077 -9.451600 
-55.657696 446.209961 45.421261 70.783313 2.402096 5.796922 -0.000043 0.000057 -0.000012 0.947878 0.249849 169.564705 13.768117 -2.869045 0.438893 22.499966 0.000095 0.599990 -0.891692 -1.180622 11.185122 13.999971 0.000010 0.030940 -46.168834 106.400154 63.975664 19.799976 -4.299965 3.699976 17.023866 -124.988555 59.709582 7.999965 0.000038 -0.000008 -51.768247 149.235358 -48.505336 15.199997 0.000028 0.000018 -8.532096 5.782829 68.596922 17.800007 0.000067 0.000004 -16.299586 -1.150928 14.297340 19.800016 4.300008 3.699969 -14.428165 -42.342641 -74.743409 8.000019 -0.151641 -0.000074 -66.206513 1.147762 -66.362774 15.199981 0.000085 -0.000021 12.970574 -9.175866 50.603669 17.800007 0.000005 0.000013 -5.348061 1.686675 6.164139 5.984214 -4.788761 -7.666017 10.155340 -10.246045 116.806084 16.000013 0.000052 -0.000074 18.411676 -2.602949 -83.830518 18.000057 0.000063 -0.000043 -8.625986 1.149589 -36.217928 5.984218 4.788825 -7.665993 -5.938892 -2.341204 135.625140 16.000036 -0.000020 -0.000015 -6.437412 6.220988 -94.594582 18.000006 0.000026 0.000006 -1.377295 0.486432 -35.046865 6.836949 0.000057 -0.722557 -8.724484 22.811655 34.383965 12.000028 0.000106 -0.000025 1.118752 -31.472347 -9.973093 
-56.375984 444.554993 45.554859 71.730756 2.912531 6.575265 0.000021 0.000045 -0.000001 -0.745812 0.089820 168.344178 12.682698 -2.433884 0.923946 22.500000 0.000083 0.599988 -0.650674 -1.451076 10.722007 14.000011 -0.000019 0.030922 -47.374738 106.459351 65.114133 19.799992 -4.299965 3.699983 17.300579 -126.624563 60.792891 8.000035 0.000030 0.000003 -51.777209 147.587752 -50.900861 15.200008 -0.000015 -0.000002 -11.083631 6.037072 68.672074 17.799969 -0.000045 0.000025 -16.332357 -1.725903 17.137908 19.799963 4.300063 3.699971 -14.733083 -43.930680 -73.576239 8.000023 -0.151609 0.000046 -63.838698 7.562680 -67.296563 15.200007 0.000062 -0.000010 8.834340 -3.252067 56.186000 17.799986 0.000012 0.000000 -13.640023 2.763603 -4.648281 5.984253 -4.788745 -7.666005 8.944287 -11.519410 113.507246 15.999972 0.000062 -0.000035 18.607971 -1.823981 -83.498093 18.000000 0.000049 -0.000001 -8.611998 1.329456 -37.459373 5.984277 4.788815 -7.665979 -7.459776 -2.320638 137.502459 15.999963 0.000032 -0.000022 -6.851065 6.719794 -90.301296 18.000004 0.000051 -0.000006 -1.238148 0.620908 -37.180196 6.836990 0.000063 -0.722581 -7.591810 21.434679 30.740486 11.999987 0.000061 -0.000021 1.256659 -29.479998 -10.678126 
-57.088295 442.931976 45.579060 72.360356 3.451774 7.167264 -0.000005 0.000049 0.000003 -2.376627 -0.021231 168.094220 11.307585 -2.107930 0.260782 22.499979 0.000015 0.600001 -0.715989 -1.623121 10.523364 13.999947 -0.000015 0.030909 -45.915738 106.240055 64.182010 19.799978 -4.300026 3.699986 17.454859 -127.988989 61.739125 8.000038 -0.000009 -0.000010 -51.543934 147.116332 -52.959012 15.200026 0.000000 -0.000013 -11.463375 6.191806 68.557327 17.800014 0.000010 -0.000009 -17.201627 -2.107256 19.099352 19.799957 4.300018 3.700014 -15.110241 -45.663452 -72.081875 8.000000 -0.151625 0.000025 -62.120625 10.104884 -67.611517 15.199992 0.000029 -0.000002 2.147902 0.246404 65.369746 17.800018 0.000003 0.000024 -18.868305 4.906602 -16.786501 5.984236 -4.788779 -7.666017 7.862347 -12.659513 110.518137 15.999977 0.000038 -0.000011 17.757085 -1.196629 -83.305741 18.000042 0.000095 -0.000002 -8.254153 1.559745 -39.280066 5.984264 4.788835 -7.665976 -8.535057 -1.972107 139.150857 16.000046 -0.000002 0.000004 -7.799880 7.275209 -85.406168 18.000004 0.000021 0.000036 -0.939975 0.804862 -40.023467 6.836979 0.000060 -0.722552 -5.988184 19.571613 26.792923 12.000030 0.000077 -0.000075 1.492411 -27.132675 -11.565535 
-57.799408 441.399963 45.573158 72.650455 4.110618 7.791799 0.000023 0.000077 -0.000010 -3.877309 -0.024545 167.309309 9.565743 -1.674928 0.835278 22.500071 0.000055 0.599993 -0.744021 -1.665150 9.054240 14.000016 -0.000022 0.030928 -41.298548 105.613583 60.492083 19.800089 -4.300022 3.699991 17.556506 -130.100801 63.274449 7.999972 -0.000037 0.000017 -50.393935 148.144481 -55.762928 15.200026 0.000027 0.000019 -11.803638 6.383251 68.492918 17.799992 0.000010 -0.000005 -18.230074 -2.398415 20.355531 19.800087 4.300015 3.699981 -15.120540 -46.276338 -71.801189 8.000008 -0.151611 -0.000004 -60.442127 7.881121 -66.073358 15.199972 0.000030 -0.000012 -0.006540 -0.633195 72.217878 17.800007 0.000033 0.000013 -29.413551 10.374256 -25.204049 5.984251 -4.788733 -7.666030 6.767127 -13.799089 107.120978 15.999987 0.000011 0.000008 17.558932 -0.438015 -82.560157 18.000072 0.000042 0.000027 -8.053896 1.715030 -40.531360 5.984259 4.788822 -7.665995 -9.178706 -1.706401 140.114255 16.000050 0.000030 0.000026 -9.119256 7.589639 -79.806355 17.999985 0.000026 -0.000072 -0.525111 0.989715 -43.596274 6.836977 0.000064 -0.722585 -4.497583 17.228244 22.757664 11.999996 0.000052 -0.000008 1.566269 -24.481090 -12.383164 
-58.554405 439.963989 45.479549 72.809277 4.611632 8.470698 -0.000032 0.000068 0.000044 -5.247598 0.005242 167.191529 7.835817 -1.379376 0.438249 22.499956 0.000128 0.600004 -0.964437 -1.682419 7.786411 13.999969 0.000042 0.030941 -35.915286 105.141200 56.215046 19.799973 -4.299937 3.699996 17.510266 -131.571614 64.458858 7.999956 -0.000007 0.000021 -49.811361 148.728025 -57.698453 15.200019 0.000060 -0.000021 -12.394293 6.374015 67.714277 17.800001 0.000101 0.000036 -18.095418 -2.526397 21.201964 19.799953 4.300082 3.699961 -15.367523 -46.757365 -71.014242 8.000064 -0.151647 0.000014 -56.766699 6.308412 -63.667772 15.199949 0.000025 -0.000036 2.707846 -3.663175 78.779607 17.799973 -0.000044 -0.000036 -43.329163 16.546403 -24.714701 5.984193 -4.788746 -7.665967 5.867774 -15.055528 103.644023 15.999972 0.000060 -0.000015 17.601374 0.126834 -81.709765 18.000044 0.000054 0.000009 -7.865675 1.861220 -41.715797 5.984223 4.788822 -7.665933 -8.521435 -1.232405 141.002330 16.000090 0.000036 -0.000022 -9.807908 7.348652 -74.966264 17.999994 0.000044 -0.000033 -0.226391 1.150920 -46.637515 6.836934 0.000066 -0.722523 -3.317795 14.815247 18.737376 12.000018 0.000067 -0.000003 1.698794 -21.791220 -13.192072 
-59.307407 438.591003 45.292255 72.909585 4.685943 8.995162 -0.000017 0.000064 -0.000017 -6.630997 -0.064520 167.821832 6.125287 -1.056173 -0.727481 22.499977 0.000097 0.599981 -0.830700 -2.026294 6.898251 14.000014 -0.000043 0.030920 -33.928569 104.247627 54.182480 19.800003 -4.299987 3.699960 17.555263 -132.896917 65.213103 8.000006 -0.000044 -0.000023 -49.727599 150.195150 -58.837756 15.200037 0.000044 -0.000045 -11.727199 6.597230 66.360253 17.800003 0.000031 0.000013 -18.579701 -2.613140 21.808487 19.799967 4.300035 3.699948 -15.552206 -48.043233 -69.948152 8.000046 -0.151639 -0.000033 -51.012139 7.626995 -60.528761 15.199986 0.000037 0.000039 10.159043 -8.187436 85.351362 17.800066 0.000024 -0.000032 -56.148550 16.623060 -11.823752 5.984244 -4.788783 -7.666029 5.269205 -16.021059 100.102098 15.999999 0.000078 -0.000010 17.742485 0.590609 -80.420430 18.000032 0.000062 -0.000005 -7.731344 1.979655 -42.680940 5.984248 4.788828 -7.666000 -7.423156 -0.280690 141.733583 15.999989 0.000007 -0.000017 -11.145589 6.387411 -70.689009 17.999994 0.000046 -0.000032 0.139842 1.257118 -49.256876 6.836936 0.000020 -0.722569 -2.875609 12.777738 15.172311 12.000022 0.000033 0.000016 1.911174 -19.215475 -14.008629 
-60.094612 437.319977 45.130154 73.054228 4.491550 9.731716 -0.000021 0.000109 -0.000025 -7.869980 -0.131127 167.837665 4.670050 -0.697834 -1.214719 22.499998 0.000070 0.599994 -0.699158 -2.490288 5.927797 14.000038 -0.000023 0.030927 -32.198413 103.548960 52.593273 19.799992 -4.299986 3.699998 17.599017 -134.469650 66.025636 7.999988 -0.000034 -0.000011 -49.935240 151.272311 -59.543089 15.199977 0.000014 -0.000006 -12.151305 6.727379 64.648437 17.800003 0.000035 0.000025 -19.651083 -2.872955 23.027652 19.799992 4.300033 3.699981 -15.795598 -49.564736 -68.494312 8.000008 -0.151639 -0.000046 -47.055096 12.787490 -58.162271 15.200026 0.000029 0.000026 4.821827 -9.135892 90.421200 17.799948 0.000030 0.000067 -51.350496 16.244989 -14.968368 5.984218 -4.788701 -7.666043 5.036491 -17.172791 96.604099 15.999981 0.000098 0.000012 17.912854 0.752870 -79.025842 18.000023 0.000055 -0.000000 -7.655600 2.182645 -44.260572 5.984238 4.788846 -7.666010 -6.268370 0.413534 141.295796 15.999948 -0.000030 0.000012 -10.991382 5.389898 -66.603367 17.999998 -0.000021 0.000009 0.265794 1.398449 -52.352864 6.836943 0.000073 -0.722587 -3.064387 11.112463 11.654400 11.999957 0.000079 -0.000024 2.282653 -16.847625 -14.732974 
